<svg xmlns="http://www.w3.org/2000/svg" width="690.3616943359375" height="726.9786987304688" style=""><rect id="backgroundrect" width="100%" height="100%" x="0" y="0" fill="none" stroke="none" style="" class=""/>
   
   
<g class="currentLayer" style=""><title>Layer 1</title><path d="M47.86842303608469,225.282986139381 h590.6507232069897 c9.329571408308981,0 17.770612206302815,3.7762550938393478 23.87926015221941,9.884903039755944 s9.884903039755944,14.549688743910426 9.884903039755944,23.87926015221941 v139.27717316689836 c0,9.329571408308981 -3.7762550938393478,17.770612206302815 -9.884903039755944,23.87926015221941 c-5.3311836618908455,5.3311836618908455 -12.328362218122576,8.885306103151407 -20.10300505838006,9.662770387177156 v51.42370907198876 c0,12.106229565543794 -9.773836713466547,21.102601994984592 -21.657933626431557,16.77101526969828 c-4.220520398996918,-1.5549285680514964 -8.774239776862016,-5.109051009312059 -13.21689282843772,-10.995566302649868 L562.6608453874194,431.97741936394067 H47.86842303608469 c-9.329571408308981,0 -17.770612206302815,-3.7762550938393478 -23.87926015221941,-9.884903039755944 s-9.884903039755944,-14.549688743910426 -9.884903039755944,-23.87926015221941 V259.0471493313564 c0,-9.329571408308981 3.7762550938393478,-17.770612206302815 9.884903039755944,-23.87926015221941 s14.549688743910426,-9.884903039755944 23.87926015221941,-9.884903039755944 zm581.7654171038383,194.14393835385826 h8.885306103151407 c5.775448967048417,0 11.10663262893926,-2.3323928520772452 14.993954049067998,-6.219714272205984 c3.887321420128741,-3.887321420128741 6.219714272205984,-9.107438755730193 6.219714272205984,-14.993954049067998 V259.0471493313564 c0,-5.775448967048417 -2.3323928520772452,-11.10663262893926 -6.219714272205984,-14.993954049067998 c-3.887321420128741,-3.887321420128741 -9.107438755730193,-6.219714272205984 -14.993954049067998,-6.219714272205984 H47.86842303608469 c-5.775448967048417,0 -11.10663262893926,2.3323928520772452 -14.993954049067998,6.219714272205984 c-3.887321420128741,3.887321420128741 -6.219714272205984,9.107438755730193 -6.219714272205984,14.993954049067998 v139.27717316689836 c0,5.775448967048417 2.3323928520772452,11.10663262893926 6.219714272205984,14.993954049067998 c3.887321420128741,3.887321420128741 9.107438755730193,6.219714272205984 14.993954049067998,6.219714272205984 h521.3453356024088 c17.548479553724032,21.991132605299736 34.5416274760011,44.42653051575704 52.09010702972512,66.41766312105676 c2.7766581572348157,3.665188767549955 8.55210712428323,4.3315867252863125 8.441040797993836,-2.7766581572348157 v-63.75207129011134 h-0.11106632628939282 zm-146.9407496808664,-74.52550494018242 h26.54485198316483 l-13.327959154727111,-46.86998969412368 l-13.21689282843772,46.86998969412368 zm123.06148952864697,-82.41121410672932 H286.1056929268319 c-11.995163239254401,0 -21.76899995272095,9.773836713466547 -21.76899995272095,21.76899995272095 v88.5198620526459 c0,11.995163239254401 9.773836713466547,21.76899995272095 21.76899995272095,21.76899995272095 h319.6488870608719 c11.995163239254401,0 21.76899995272095,-9.773836713466547 21.76899995272095,-21.76899995272095 V284.2592053990485 c0,-11.884096912965006 -9.773836713466547,-21.76899995272095 -21.76899995272095,-21.76899995272095 zm-300.2122799602282,101.51462222850485 c2.7766581572348157,2.887724483524208 6.8861122299423405,4.3315867252863125 12.106229565543794,4.3315867252863125 c3.443056114971171,0 6.219714272205984,-0.5553316314469625 8.218908145415053,-1.6659948943408902 c1.9991938732090673,-1.110663262893926 3.5541224412605636,-2.443459178366637 4.553719377865097,-4.109454072707527 c0.9995969366045337,-1.6659948943408902 1.6659948943408902,-3.443056114971171 2.110260199498459,-5.2201173356014525 c0.3331989788681785,-1.8881275469196748 0.5553316314469625,-3.665188767549955 0.6663979577363562,-5.2201173356014525 c0.2221326525787854,-2.3323928520772452 1.221729589183319,-3.998387746418134 3.1098571361029914,-4.886918356733273 c1.8881275469196748,-0.8885306103151414 4.109454072707527,-1.332795915472711 6.7750459036529485,-1.332795915472711 c3.443056114971171,0 5.9975816196272005,0.6663979577363562 7.66357651396809,1.9991938732090673 c1.6659948943408902,1.332795915472711 2.443459178366637,3.887321420128741 2.443459178366637,7.774642840257481 c0,4.553719377865097 -0.8885306103151414,8.774239776862016 -2.6655918309454227,12.550494870701364 c-1.7770612206302823,3.7762550938393478 -4.3315867252863125,6.997178556231733 -7.5525101876786955,9.551704060887763 s-7.108244882521129,4.553719377865097 -11.661964260386222,5.9975816196272005 c-4.442653051575704,1.4438622417621043 -9.329571408308981,2.110260199498459 -14.660755070199821,2.110260199498459 c-4.7758520304438825,0 -9.329571408308981,-0.6663979577363562 -13.550091807305895,-1.8881275469196748 c-4.3315867252863125,-1.221729589183319 -7.996775492836267,-3.3319897886817778 -11.21769895522865,-5.9975816196272005 c-3.2209234623923853,-2.7766581572348157 -5.775448967048417,-6.330780598495378 -7.5525101876786955,-10.773433650071079 c-1.8881275469196748,-4.442653051575704 -2.7766581572348157,-9.884903039755944 -2.7766581572348157,-16.32674996454071 v-42.64946929512675 c0,-6.4418469247847705 0.8885306103151414,-11.884096912965006 2.7766581572348157,-16.32674996454071 s4.442653051575704,-7.996775492836267 7.66357651396809,-10.773433650071079 c3.2209234623923853,-2.7766581572348157 6.997178556231733,-4.7758520304438825 11.21769895522865,-5.9975816196272005 c4.3315867252863125,-1.221729589183319 8.774239776862016,-1.8881275469196748 13.550091807305895,-1.8881275469196748 c5.3311836618908455,0 10.218102018624117,0.6663979577363562 14.660755070199821,2.110260199498459 c4.442653051575704,1.332795915472711 8.329974471704444,3.3319897886817778 11.550897934096833,5.775448967048417 c3.2209234623923853,2.443459178366637 5.664382640759022,5.55331631446963 7.441443861389304,9.218505082019584 c1.7770612206302823,3.665188767549955 2.6655918309454227,7.66357651396809 2.6655918309454227,11.995163239254401 c0,3.998387746418134 -0.7774642840257484,6.552913251074163 -2.443459178366637,7.8857091665468735 c-1.6659948943408902,1.221729589183319 -4.109454072707527,1.8881275469196748 -7.441443861389304,1.8881275469196748 c-2.887724483524208,0 -5.2201173356014525,-0.44426530515757146 -6.997178556231733,-1.332795915472711 c-1.8881275469196748,-0.8885306103151414 -2.7766581572348157,-2.5545255046560293 -2.887724483524208,-4.886918356733273 c-0.11106632628939282,-1.221729589183319 -0.3331989788681785,-2.6655918309454227 -0.6663979577363562,-4.3315867252863125 s-0.9995969366045337,-3.3319897886817778 -2.110260199498459,-4.997984683022666 c-1.110663262893926,-1.6659948943408902 -2.6655918309454227,-2.9987908098136002 -4.6647857041544905,-4.109454072707527 c-1.9991938732090673,-1.110663262893926 -4.886918356733273,-1.6659948943408902 -8.55210712428323,-1.6659948943408902 c-5.2201173356014525,0 -9.218505082019584,1.4438622417621043 -11.884096912965006,4.3315867252863125 c-2.7766581572348157,2.887724483524208 -4.109454072707527,7.3303775350999105 -4.109454072707527,13.327959154727111 v42.64946929512675 c0,5.664382640759022 1.4438622417621043,10.107035692334724 4.220520398996918,12.883693849569541 zm136.2783823570847,14.549688743910426 c0,1.9991938732090673 -0.9995969366045337,3.5541224412605636 -3.1098571361029914,4.6647857041544905 s-4.3315867252863125,1.5549285680514964 -6.7750459036529485,1.5549285680514964 c-2.5545255046560293,0 -4.886918356733273,-0.5553316314469625 -6.8861122299423405,-1.5549285680514964 c-1.9991938732090673,-1.110663262893926 -3.1098571361029914,-2.6655918309454227 -3.1098571361029914,-4.6647857041544905 v-43.871198884310076 h-34.43056114971171 v43.871198884310076 c0,1.9991938732090673 -0.9995969366045337,3.5541224412605636 -3.1098571361029914,4.6647857041544905 s-4.3315867252863125,1.5549285680514964 -6.7750459036529485,1.5549285680514964 c-2.5545255046560293,0 -4.886918356733273,-0.5553316314469625 -6.8861122299423405,-1.5549285680514964 c-1.9991938732090673,-1.110663262893926 -3.1098571361029914,-2.6655918309454227 -3.1098571361029914,-4.6647857041544905 v-99.29329570271699 c0,-2.110260199498459 0.9995969366045337,-3.665188767549955 3.1098571361029914,-4.6647857041544905 c1.9991938732090673,-0.9995969366045337 4.3315867252863125,-1.4438622417621043 6.8861122299423405,-1.4438622417621043 c2.443459178366637,0 4.6647857041544905,0.44426530515757146 6.7750459036529485,1.4438622417621043 c2.110260199498459,0.9995969366045337 3.1098571361029914,2.5545255046560293 3.1098571361029914,4.6647857041544905 v39.87281113789193 h34.43056114971171 v-39.87281113789193 c0,-2.110260199498459 0.9995969366045337,-3.665188767549955 3.1098571361029914,-4.6647857041544905 c1.9991938732090673,-0.9995969366045337 4.3315867252863125,-1.4438622417621043 6.8861122299423405,-1.4438622417621043 c2.443459178366637,0 4.6647857041544905,0.44426530515757146 6.7750459036529485,1.4438622417621043 c2.110260199498459,0.9995969366045337 3.1098571361029914,2.5545255046560293 3.1098571361029914,4.6647857041544905 v99.29329570271699 zm95.51704060887764,1.332795915472711 c-0.7774642840257484,0.9995969366045337 -1.8881275469196748,1.8881275469196748 -3.1098571361029914,2.5545255046560293 c-1.221729589183319,0.7774642840257484 -2.5545255046560293,1.332795915472711 -3.998387746418134,1.7770612206302823 c-1.4438622417621043,0.44426530515757146 -2.887724483524208,0.6663979577363562 -4.220520398996918,0.6663979577363562 c-1.7770612206302823,0 -3.2209234623923853,-0.3331989788681785 -4.3315867252863125,-0.8885306103151414 c-1.221729589183319,-0.6663979577363562 -1.9991938732090673,-1.6659948943408902 -2.3323928520772452,-3.1098571361029914 l-5.775448967048417,-20.325137710958845 h-34.98589278115867 l-5.775448967048417,20.325137710958845 c-0.44426530515757146,1.4438622417621043 -1.221729589183319,2.443459178366637 -2.3323928520772452,3.1098571361029914 c-1.221729589183319,0.5553316314469625 -2.6655918309454227,0.8885306103151414 -4.3315867252863125,0.8885306103151414 c-1.332795915472711,0 -2.7766581572348157,-0.2221326525787854 -4.220520398996918,-0.6663979577363562 c-1.4438622417621043,-0.44426530515757146 -2.7766581572348157,-0.9995969366045337 -3.998387746418134,-1.6659948943408902 s-2.221326525787852,-1.5549285680514964 -3.1098571361029914,-2.5545255046560293 c-0.7774642840257484,-0.9995969366045337 -1.221729589183319,-2.110260199498459 -1.221729589183319,-3.3319897886817778 c0,-0.2221326525787854 0.11106632628939282,-0.6663979577363562 0.3331989788681785,-1.5549285680514964 l29.54364279297843,-96.0723722403246 c0.6663979577363562,-2.3323928520772452 2.3323928520772452,-3.998387746418134 4.7758520304438825,-5.109051009312059 c2.443459178366637,-1.110663262893926 5.109051009312059,-1.5549285680514964 7.996775492836267,-1.5549285680514964 c2.9987908098136002,0 5.664382640759022,0.5553316314469625 8.107841819125658,1.5549285680514964 c2.443459178366637,1.110663262893926 3.998387746418134,2.7766581572348157 4.7758520304438825,5.109051009312059 l29.54364279297843,96.0723722403246 c0.2221326525787854,0.7774642840257484 0.3331989788681785,1.332795915472711 0.3331989788681785,1.5549285680514964 c-0.44426530515757146,1.110663262893926 -0.7774642840257484,2.221326525787852 -1.6659948943408902,3.2209234623923853 zm72.19311208810518,-91.62971918874888 c-1.110663262893926,1.8881275469196748 -2.6655918309454227,2.7766581572348157 -4.6647857041544905,2.7766581572348157 h-22.324331584167915 v87.52026511604134 c0,1.9991938732090673 -0.9995969366045337,3.5541224412605636 -3.1098571361029914,4.6647857041544905 s-4.3315867252863125,1.5549285680514964 -6.7750459036529485,1.5549285680514964 c-2.5545255046560293,0 -4.886918356733273,-0.5553316314469625 -6.8861122299423405,-1.5549285680514964 c-1.9991938732090673,-1.110663262893926 -3.1098571361029914,-2.6655918309454227 -3.1098571361029914,-4.6647857041544905 v-87.52026511604134 h-22.4353979104573 c-1.9991938732090673,0 -3.5541224412605636,-0.8885306103151414 -4.6647857041544905,-2.6655918309454227 c-1.110663262893926,-1.7770612206302823 -1.5549285680514964,-3.887321420128741 -1.5549285680514964,-6.330780598495378 c0,-2.110260199498459 0.5553316314469625,-4.109454072707527 1.5549285680514964,-5.9975816196272005 c0.9995969366045337,-1.8881275469196748 2.5545255046560293,-2.7766581572348157 4.7758520304438825,-2.7766581572348157 h64.6406019004265 c2.110260199498459,0 3.665188767549955,0.8885306103151414 4.7758520304438825,2.7766581572348157 c0.9995969366045337,1.8881275469196748 1.5549285680514964,3.887321420128741 1.5549285680514964,5.9975816196272005 c-0.2221326525787854,2.3323928520772452 -0.7774642840257484,4.3315867252863125 -1.7770612206302823,6.219714272205984 zm-550.0004477850721,-5.3311836618908455 l29.54364279297843,96.0723722403246 c0.7774642840257484,2.3323928520772452 2.443459178366637,3.998387746418134 4.7758520304438825,5.109051009312059 c2.443459178366637,1.110663262893926 5.109051009312059,1.5549285680514964 7.996775492836267,1.5549285680514964 c2.9987908098136002,0 5.664382640759022,-0.5553316314469625 8.107841819125658,-1.5549285680514964 c2.443459178366637,-1.110663262893926 3.998387746418134,-2.7766581572348157 4.7758520304438825,-5.109051009312059 l29.32151014039964,-96.0723722403246 c0.2221326525787854,-0.7774642840257484 0.3331989788681785,-1.332795915472711 0.3331989788681785,-1.5549285680514964 c0,-1.221729589183319 -0.44426530515757146,-2.3323928520772452 -1.221729589183319,-3.3319897886817778 c-0.7774642840257484,-0.9995969366045337 -1.8881275469196748,-1.8881275469196748 -3.1098571361029914,-2.5545255046560293 c-1.221729589183319,-0.7774642840257484 -2.5545255046560293,-1.332795915472711 -3.998387746418134,-1.7770612206302823 c-1.4438622417621043,-0.44426530515757146 -2.887724483524208,-0.5553316314469625 -4.220520398996918,-0.5553316314469625 c-1.7770612206302823,0 -3.2209234623923853,0.3331989788681785 -4.3315867252863125,0.8885306103151414 c-1.221729589183319,0.5553316314469625 -1.9991938732090673,1.6659948943408902 -2.3323928520772452,3.1098571361029914 l-23.21286219448305,82.85547941188686 l-23.323928520772444,-82.85547941188686 c-0.44426530515757146,-1.4438622417621043 -1.221729589183319,-2.443459178366637 -2.3323928520772452,-3.1098571361029914 c-1.221729589183319,-0.6663979577363562 -2.6655918309454227,-0.8885306103151414 -4.3315867252863125,-0.8885306103151414 c-1.332795915472711,0 -2.7766581572348157,0.2221326525787854 -4.220520398996918,0.5553316314469625 c-1.4438622417621043,0.44426530515757146 -2.7766581572348157,0.9995969366045337 -3.998387746418134,1.6659948943408902 s-2.221326525787852,1.5549285680514964 -3.1098571361029914,2.5545255046560293 c-0.7774642840257484,0.9995969366045337 -1.221729589183319,2.110260199498459 -1.221729589183319,3.3319897886817778 c-0.2221326525787854,0.3331989788681785 -0.11106632628939282,0.7774642840257484 0.11106632628939282,1.6659948943408902 zm96.51663754548218,-3.665188767549955 c0,-1.6659948943408902 0.5553316314469625,-3.1098571361029914 1.7770612206302823,-4.3315867252863125 s2.7766581572348157,-1.8881275469196748 4.6647857041544905,-1.8881275469196748 h30.210040750714782 c4.997984683022666,0 9.662770387177156,0.5553316314469625 14.105423438752858,1.5549285680514964 c4.3315867252863125,1.110663262893926 8.218908145415053,2.7766581572348157 11.550897934096833,5.2201173356014525 s5.8865152933378075,5.664382640759022 7.774642840257481,9.773836713466547 c1.8881275469196748,4.109454072707527 2.7766581572348157,9.218505082019584 2.7766581572348157,15.32715302793618 c0,8.774239776862016 -1.8881275469196748,15.660352006804354 -5.775448967048417,20.547270363537628 c-3.7762550938393478,4.886918356733273 -8.55210712428323,8.329974471704444 -14.327556091331646,9.995969366045331 l19.991938732090663,37.096152980657116 c0.3331989788681785,0.44426530515757146 0.5553316314469625,0.8885306103151414 0.5553316314469625,1.332795915472711 c0.11106632628939282,0.44426530515757146 0.11106632628939282,0.8885306103151414 0.11106632628939282,1.110663262893926 c0,1.221729589183319 -0.3331989788681785,2.443459178366637 -1.110663262893926,3.7762550938393478 c-0.7774642840257484,1.221729589183319 -1.7770612206302823,2.443459178366637 -2.887724483524208,3.3319897886817778 c-1.221729589183319,0.9995969366045337 -2.443459178366637,1.7770612206302823 -3.998387746418134,2.3323928520772452 c-1.4438622417621043,0.6663979577363562 -2.887724483524208,0.8885306103151414 -4.3315867252863125,0.8885306103151414 c-1.4438622417621043,0 -2.7766581572348157,-0.44426530515757146 -3.887321420128741,-1.221729589183319 c-1.221729589183319,-0.7774642840257484 -2.110260199498459,-1.9991938732090673 -2.9987908098136002,-3.5541224412605636 l-21.657933626431557,-42.205203989969185 h-12.883693849569541 v39.87281113789193 c0,1.9991938732090673 -0.9995969366045337,3.5541224412605636 -3.1098571361029914,4.6647857041544905 c-1.9991938732090673,1.110663262893926 -4.3315867252863125,1.5549285680514964 -6.8861122299423405,1.5549285680514964 c-2.443459178366637,0 -4.6647857041544905,-0.5553316314469625 -6.7750459036529485,-1.5549285680514964 c-2.110260199498459,-1.110663262893926 -3.1098571361029914,-2.6655918309454227 -3.1098571361029914,-4.6647857041544905 v-98.96009672384879 h0.2221326525787854 zm19.88087240580127,11.328765281518043 V323.1324196003359 h16.77101526969828 c4.997984683022666,0 8.996372429440799,-1.221729589183319 11.884096912965006,-3.5541224412605636 c2.9987908098136002,-2.443459178366637 4.442653051575704,-6.552913251074163 4.442653051575704,-12.550494870701364 s-1.4438622417621043,-10.218102018624117 -4.442653051575704,-12.661561196990757 c-2.9987908098136002,-2.443459178366637 -6.8861122299423405,-3.665188767549955 -11.884096912965006,-3.665188767549955 h-16.77101526969828 v-0.11106632628939282 z" style="fill:#fff" id="svg_2" class="selected"/></g></svg>