<svg xmlns="http://www.w3.org/2000/svg" width="1045.787235956971" height="459.0425536265843" style=""><rect id="backgroundrect" width="100%" height="100%" x="0" y="0" fill="none" stroke="none" style="" class=""/>
   
   
<g class="currentLayer" style=""><title>Layer 1</title><path d="M85.70113793612688,24.751074944169886 h880.2739068984985 c13.904288864135744,0 26.484359741210938,5.627926445007324 35.5883584022522,14.731925106048585 s14.731925106048585,21.684069538116454 14.731925106048585,35.5883584022522 v207.57116947174075 c0,13.904288864135744 -5.627926445007324,26.484359741210938 -14.731925106048585,35.5883584022522 c-7.9453079223632805,7.9453079223632805 -18.373524570465086,13.242179870605469 -29.960431957244875,14.400870609283446 v76.63911600112914 c0,18.042470073699953 -14.566397857666017,31.45017719268799 -32.27781343460083,24.99461450576782 c-6.290035438537597,-2.3173814773559567 -13.076652622222902,-7.614253425598144 -19.697742557525636,-16.38719758987427 L852.9199341893313,332.7972841841297 H85.70113793612688 c-13.904288864135744,0 -26.484359741210938,-5.627926445007324 -35.5883584022522,-14.731925106048585 s-14.731925106048585,-21.684069538116454 -14.731925106048585,-35.5883584022522 V75.0713584524708 c0,-13.904288864135744 5.627926445007324,-26.484359741210938 14.731925106048585,-35.5883584022522 s21.684069538116454,-14.731925106048585 35.5883584022522,-14.731925106048585 zm867.031727027893,289.34163017272954 h13.242179870605469 c8.607416915893555,0 16.552724838256836,-3.476072216033936 22.34617853164673,-9.269525909423827 c5.7934536933898935,-5.7934536933898935 9.269525909423827,-13.573234367370604 9.269525909423827,-22.34617853164673 V75.0713584524708 c0,-8.607416915893555 -3.476072216033936,-16.552724838256836 -9.269525909423827,-22.34617853164673 c-5.7934536933898935,-5.7934536933898935 -13.573234367370604,-9.269525909423827 -22.34617853164673,-9.269525909423827 H85.70113793612688 c-8.607416915893555,0 -16.552724838256836,3.476072216033936 -22.34617853164673,9.269525909423827 c-5.7934536933898935,5.7934536933898935 -9.269525909423827,13.573234367370604 -9.269525909423827,22.34617853164673 v207.57116947174075 c0,8.607416915893555 3.476072216033936,16.552724838256836 9.269525909423827,22.34617853164673 c5.7934536933898935,5.7934536933898935 13.573234367370604,9.269525909423827 22.34617853164673,9.269525909423827 h776.9849039077758 c26.153305244445804,32.77439517974854 51.478974246978765,66.21089935302734 77.63227949142455,98.98529453277587 c4.138181209564209,5.462399196624755 12.745598125457764,6.455562686920166 12.580070877075194,-4.138181209564209 v-95.01264057159423 h-0.1655272483825685 zm-218.99254961013796,-111.06878366470336 h39.56101236343383 l-19.863269805908203,-69.85249881744386 l-19.697742557525636,69.85249881744386 zm183.40419120788573,-122.82121829986573 H440.7570857167361 c-17.876942825317386,0 -32.443340682983404,14.566397857666017 -32.443340682983404,32.443340682983404 v131.925216960907 c0,17.876942825317386 14.566397857666017,32.443340682983404 32.443340682983404,32.443340682983404 h476.3874208450318 c17.876942825317386,0 32.443340682983404,-14.566397857666017 32.443340682983404,-32.443340682983404 V112.64604383531378 c0,-17.71141557693481 -14.566397857666017,-32.443340682983404 -32.443340682983404,-32.443340682983404 zm-447.4201523780823,151.2919050216675 c4.138181209564209,4.303708457946778 10.262689399719239,6.455562686920166 18.042470073699953,6.455562686920166 c5.1313446998596195,0 9.269525909423827,-0.8276362419128415 12.24901638031006,-2.4829087257385254 c2.9794904708862306,-1.6552724838256836 5.296871948242188,-3.641599464416504 6.786617183685302,-6.12450819015503 c1.4897452354431153,-2.4829087257385254 2.4829087257385254,-5.1313446998596195 3.1450177192687985,-7.779780673980714 c0.4965817451477055,-2.8139632225036624 0.8276362419128415,-5.462399196624755 0.9931634902954105,-7.779780673980714 c0.3310544967651368,-3.476072216033936 1.8207997322082528,-5.958980941772461 4.634762954711913,-7.283198928833008 c2.8139632225036624,-1.324217987060547 6.12450819015503,-1.9863269805908201 10.097162151336669,-1.9863269805908201 c5.1313446998596195,0 8.938471412658693,0.9931634902954105 11.421380138397218,2.9794904708862306 c2.4829087257385254,1.9863269805908201 3.641599464416504,5.7934536933898935 3.641599464416504,11.586907386779785 c0,6.786617183685302 -1.324217987060547,13.076652622222902 -3.9726539611816403,18.704579067230227 c-2.648435974121094,5.627926445007324 -6.455562686920166,10.428216648101806 -11.255852890014648,14.235343360900877 s-10.593743896484376,6.786617183685302 -17.380361080169678,8.938471412658693 c-6.621089935302734,2.151854228973389 -13.904288864135744,3.1450177192687985 -21.84959678649902,3.1450177192687985 c-7.117671680450439,0 -13.904288864135744,-0.9931634902954105 -20.194324302673337,-2.8139632225036624 c-6.455562686920166,-1.8207997322082528 -11.917961883544923,-4.965817451477051 -16.718252086639403,-8.938471412658693 c-4.800290203094482,-4.138181209564209 -8.607416915893555,-9.435053157806397 -11.255852890014648,-16.056143093109128 c-2.8139632225036624,-6.621089935302734 -4.138181209564209,-14.731925106048585 -4.138181209564209,-24.332505512237546 v-63.562463378906244 c0,-9.600580406188964 1.324217987060547,-17.71141557693481 4.138181209564209,-24.332505512237546 s6.621089935302734,-11.917961883544923 11.421380138397218,-16.056143093109128 c4.800290203094482,-4.138181209564209 10.428216648101806,-7.117671680450439 16.718252086639403,-8.938471412658693 c6.455562686920166,-1.8207997322082528 13.076652622222902,-2.8139632225036624 20.194324302673337,-2.8139632225036624 c7.9453079223632805,0 15.228506851196288,0.9931634902954105 21.84959678649902,3.1450177192687985 c6.621089935302734,1.9863269805908201 12.414543628692627,4.965817451477051 17.21483383178711,8.607416915893555 c4.800290203094482,3.641599464416504 8.441889667510985,8.276362419128418 11.09032564163208,13.738761615753175 c2.648435974121094,5.462399196624755 3.9726539611816403,11.421380138397218 3.9726539611816403,17.876942825317386 c0,5.958980941772461 -1.1586907386779788,9.766107654571535 -3.641599464416504,11.752434635162352 c-2.4829087257385254,1.8207997322082528 -6.12450819015503,2.8139632225036624 -11.09032564163208,2.8139632225036624 c-4.303708457946778,0 -7.779780673980714,-0.6621089935302741 -10.428216648101806,-1.9863269805908201 c-2.8139632225036624,-1.324217987060547 -4.138181209564209,-3.807126712799072 -4.303708457946778,-7.283198928833008 c-0.1655272483825685,-1.8207997322082528 -0.4965817451477055,-3.9726539611816403 -0.9931634902954105,-6.455562686920166 s-1.4897452354431153,-4.965817451477051 -3.1450177192687985,-7.448726177215576 c-1.6552724838256836,-2.4829087257385254 -3.9726539611816403,-4.469235706329346 -6.952144432067872,-6.12450819015503 c-2.9794904708862306,-1.6552724838256836 -7.283198928833008,-2.4829087257385254 -12.745598125457764,-2.4829087257385254 c-7.779780673980714,0 -13.738761615753175,2.151854228973389 -17.71141557693481,6.455562686920166 c-4.138181209564209,4.303708457946778 -6.12450819015503,10.92479839324951 -6.12450819015503,19.863269805908203 v63.562463378906244 c0,8.441889667510985 2.151854228973389,15.06297960281372 6.290035438537597,19.20116081237793 zm203.1019337654114,21.684069538116454 c0,2.9794904708862306 -1.4897452354431153,5.296871948242188 -4.634762954711913,6.952144432067872 s-6.455562686920166,2.3173814773559567 -10.097162151336669,2.3173814773559567 c-3.807126712799072,0 -7.283198928833008,-0.8276362419128415 -10.262689399719239,-2.3173814773559567 c-2.9794904708862306,-1.6552724838256836 -4.634762954711913,-3.9726539611816403 -4.634762954711913,-6.952144432067872 v-65.3832631111145 h-51.31344699859619 v65.3832631111145 c0,2.9794904708862306 -1.4897452354431153,5.296871948242188 -4.634762954711913,6.952144432067872 s-6.455562686920166,2.3173814773559567 -10.097162151336669,2.3173814773559567 c-3.807126712799072,0 -7.283198928833008,-0.8276362419128415 -10.262689399719239,-2.3173814773559567 c-2.9794904708862306,-1.6552724838256836 -4.634762954711913,-3.9726539611816403 -4.634762954711913,-6.952144432067872 v-147.98136005401614 c0,-3.1450177192687985 1.4897452354431153,-5.462399196624755 4.634762954711913,-6.952144432067872 c2.9794904708862306,-1.4897452354431153 6.455562686920166,-2.151854228973389 10.262689399719239,-2.151854228973389 c3.641599464416504,0 6.952144432067872,0.6621089935302741 10.097162151336669,2.151854228973389 c3.1450177192687985,1.4897452354431153 4.634762954711913,3.807126712799072 4.634762954711913,6.952144432067872 v59.424282169342035 h51.31344699859619 v-59.424282169342035 c0,-3.1450177192687985 1.4897452354431153,-5.462399196624755 4.634762954711913,-6.952144432067872 c2.9794904708862306,-1.4897452354431153 6.455562686920166,-2.151854228973389 10.262689399719239,-2.151854228973389 c3.641599464416504,0 6.952144432067872,0.6621089935302741 10.097162151336669,2.151854228973389 c3.1450177192687985,1.4897452354431153 4.634762954711913,3.807126712799072 4.634762954711913,6.952144432067872 v147.98136005401614 zm142.3534336090088,1.9863269805908201 c-1.1586907386779788,1.4897452354431153 -2.8139632225036624,2.8139632225036624 -4.634762954711913,3.807126712799072 c-1.8207997322082528,1.1586907386779788 -3.807126712799072,1.9863269805908201 -5.958980941772461,2.648435974121094 c-2.151854228973389,0.6621089935302741 -4.303708457946778,0.9931634902954105 -6.290035438537597,0.9931634902954105 c-2.648435974121094,0 -4.800290203094482,-0.4965817451477055 -6.455562686920166,-1.324217987060547 c-1.8207997322082528,-0.9931634902954105 -2.9794904708862306,-2.4829087257385254 -3.476072216033936,-4.634762954711913 l-8.607416915893555,-30.291486454010013 h-52.14108324050903 l-8.607416915893555,30.291486454010013 c-0.6621089935302741,2.151854228973389 -1.8207997322082528,3.641599464416504 -3.476072216033936,4.634762954711913 c-1.8207997322082528,0.8276362419128415 -3.9726539611816403,1.324217987060547 -6.455562686920166,1.324217987060547 c-1.9863269805908201,0 -4.138181209564209,-0.3310544967651368 -6.290035438537597,-0.9931634902954105 c-2.151854228973389,-0.6621089935302741 -4.138181209564209,-1.4897452354431153 -5.958980941772461,-2.4829087257385254 s-3.310544967651367,-2.3173814773559567 -4.634762954711913,-3.807126712799072 c-1.1586907386779788,-1.4897452354431153 -1.8207997322082528,-3.1450177192687985 -1.8207997322082528,-4.965817451477051 c0,-0.3310544967651368 0.1655272483825685,-0.9931634902954105 0.4965817451477055,-2.3173814773559567 l44.03024806976319,-143.18106985092163 c0.9931634902954105,-3.476072216033936 3.476072216033936,-5.958980941772461 7.117671680450439,-7.614253425598144 c3.641599464416504,-1.6552724838256836 7.614253425598144,-2.3173814773559567 11.917961883544923,-2.3173814773559567 c4.469235706329346,0 8.441889667510985,0.8276362419128415 12.08348913192749,2.3173814773559567 c3.641599464416504,1.6552724838256836 5.958980941772461,4.138181209564209 7.117671680450439,7.614253425598144 l44.03024806976319,143.18106985092163 c0.3310544967651368,1.1586907386779788 0.4965817451477055,1.9863269805908201 0.4965817451477055,2.3173814773559567 c-0.6621089935302741,1.6552724838256836 -1.1586907386779788,3.310544967651367 -2.4829087257385254,4.800290203094482 zm107.59271144866943,-136.5599799156189 c-1.6552724838256836,2.8139632225036624 -3.9726539611816403,4.138181209564209 -6.952144432067872,4.138181209564209 h-33.270976924896246 v130.43547172546386 c0,2.9794904708862306 -1.4897452354431153,5.296871948242188 -4.634762954711913,6.952144432067872 s-6.455562686920166,2.3173814773559567 -10.097162151336669,2.3173814773559567 c-3.807126712799072,0 -7.283198928833008,-0.8276362419128415 -10.262689399719239,-2.3173814773559567 c-2.9794904708862306,-1.6552724838256836 -4.634762954711913,-3.9726539611816403 -4.634762954711913,-6.952144432067872 v-130.43547172546386 h-33.436504173278806 c-2.9794904708862306,0 -5.296871948242188,-1.324217987060547 -6.952144432067872,-3.9726539611816403 c-1.6552724838256836,-2.648435974121094 -2.3173814773559567,-5.7934536933898935 -2.3173814773559567,-9.435053157806397 c0,-3.1450177192687985 0.8276362419128415,-6.12450819015503 2.3173814773559567,-8.938471412658693 c1.4897452354431153,-2.8139632225036624 3.807126712799072,-4.138181209564209 7.117671680450439,-4.138181209564209 h96.3368585586548 c3.1450177192687985,0 5.462399196624755,1.324217987060547 7.117671680450439,4.138181209564209 c1.4897452354431153,2.8139632225036624 2.3173814773559567,5.7934536933898935 2.3173814773559567,8.938471412658693 c-0.3310544967651368,3.476072216033936 -1.1586907386779788,6.455562686920166 -2.648435974121094,9.269525909423827 zm-819.6909339904785,-7.9453079223632805 l44.03024806976319,143.18106985092163 c1.1586907386779788,3.476072216033936 3.641599464416504,5.958980941772461 7.117671680450439,7.614253425598144 c3.641599464416504,1.6552724838256836 7.614253425598144,2.3173814773559567 11.917961883544923,2.3173814773559567 c4.469235706329346,0 8.441889667510985,-0.8276362419128415 12.08348913192749,-2.3173814773559567 c3.641599464416504,-1.6552724838256836 5.958980941772461,-4.138181209564209 7.117671680450439,-7.614253425598144 l43.69919357299804,-143.18106985092163 c0.3310544967651368,-1.1586907386779788 0.4965817451477055,-1.9863269805908201 0.4965817451477055,-2.3173814773559567 c0,-1.8207997322082528 -0.6621089935302741,-3.476072216033936 -1.8207997322082528,-4.965817451477051 c-1.1586907386779788,-1.4897452354431153 -2.8139632225036624,-2.8139632225036624 -4.634762954711913,-3.807126712799072 c-1.8207997322082528,-1.1586907386779788 -3.807126712799072,-1.9863269805908201 -5.958980941772461,-2.648435974121094 c-2.151854228973389,-0.6621089935302741 -4.303708457946778,-0.8276362419128415 -6.290035438537597,-0.8276362419128415 c-2.648435974121094,0 -4.800290203094482,0.4965817451477055 -6.455562686920166,1.324217987060547 c-1.8207997322082528,0.8276362419128415 -2.9794904708862306,2.4829087257385254 -3.476072216033936,4.634762954711913 l-34.59519491195678,123.48332729339599 l-34.760722160339355,-123.48332729339599 c-0.6621089935302741,-2.151854228973389 -1.8207997322082528,-3.641599464416504 -3.476072216033936,-4.634762954711913 c-1.8207997322082528,-0.9931634902954105 -3.9726539611816403,-1.324217987060547 -6.455562686920166,-1.324217987060547 c-1.9863269805908201,0 -4.138181209564209,0.3310544967651368 -6.290035438537597,0.8276362419128415 c-2.151854228973389,0.6621089935302741 -4.138181209564209,1.4897452354431153 -5.958980941772461,2.4829087257385254 s-3.310544967651367,2.3173814773559567 -4.634762954711913,3.807126712799072 c-1.1586907386779788,1.4897452354431153 -1.8207997322082528,3.1450177192687985 -1.8207997322082528,4.965817451477051 c-0.3310544967651368,0.4965817451477055 -0.1655272483825685,1.1586907386779788 0.1655272483825685,2.4829087257385254 zm143.84317884445193,-5.462399196624755 c0,-2.4829087257385254 0.8276362419128415,-4.634762954711913 2.648435974121094,-6.455562686920166 s4.138181209564209,-2.8139632225036624 6.952144432067872,-2.8139632225036624 h45.02341156005859 c7.448726177215576,0 14.400870609283446,0.8276362419128415 21.02196054458618,2.3173814773559567 c6.455562686920166,1.6552724838256836 12.24901638031006,4.138181209564209 17.21483383178711,7.779780673980714 s8.772944164276122,8.441889667510985 11.586907386779785,14.566397857666017 c2.8139632225036624,6.12450819015503 4.138181209564209,13.738761615753175 4.138181209564209,22.842760276794436 c0,13.076652622222902 -2.8139632225036624,23.339342021942137 -8.607416915893555,30.622540950775146 c-5.627926445007324,7.283198928833008 -12.745598125457764,12.414543628692627 -21.35301504135132,14.897452354431152 l29.794904708862305,55.286100959777826 c0.4965817451477055,0.6621089935302741 0.8276362419128415,1.324217987060547 0.8276362419128415,1.9863269805908201 c0.1655272483825685,0.6621089935302741 0.1655272483825685,1.324217987060547 0.1655272483825685,1.6552724838256836 c0,1.8207997322082528 -0.4965817451477055,3.641599464416504 -1.6552724838256836,5.627926445007324 c-1.1586907386779788,1.8207997322082528 -2.648435974121094,3.641599464416504 -4.303708457946778,4.965817451477051 c-1.8207997322082528,1.4897452354431153 -3.641599464416504,2.648435974121094 -5.958980941772461,3.476072216033936 c-2.151854228973389,0.9931634902954105 -4.303708457946778,1.324217987060547 -6.455562686920166,1.324217987060547 c-2.151854228973389,0 -4.138181209564209,-0.6621089935302741 -5.7934536933898935,-1.8207997322082528 c-1.8207997322082528,-1.1586907386779788 -3.1450177192687985,-2.9794904708862306 -4.469235706329346,-5.296871948242188 l-32.27781343460083,-62.90035438537598 h-19.20116081237793 v59.424282169342035 c0,2.9794904708862306 -1.4897452354431153,5.296871948242188 -4.634762954711913,6.952144432067872 c-2.9794904708862306,1.6552724838256836 -6.455562686920166,2.3173814773559567 -10.262689399719239,2.3173814773559567 c-3.641599464416504,0 -6.952144432067872,-0.8276362419128415 -10.097162151336669,-2.3173814773559567 c-3.1450177192687985,-1.6552724838256836 -4.634762954711913,-3.9726539611816403 -4.634762954711913,-6.952144432067872 v-147.48477830886839 h0.3310544967651368 zm29.629377460479734,16.88377933502197 V170.5805807692127 h24.99461450576782 c7.448726177215576,0 13.407707118988036,-1.8207997322082528 17.71141557693481,-5.296871948242188 c4.469235706329346,-3.641599464416504 6.621089935302734,-9.766107654571535 6.621089935302734,-18.704579067230227 s-2.151854228973389,-15.228506851196288 -6.621089935302734,-18.870106315612794 c-4.469235706329346,-3.641599464416504 -10.262689399719239,-5.462399196624755 -17.71141557693481,-5.462399196624755 h-24.99461450576782 v-0.1655272483825685 z" style="fill:#fff" id="svg_2" class=""/></g></svg>